<?xml version="1.0" encoding="utf-8"?>
<!-- Generator: Adobe Illustrator 22.0.0, SVG Export Plug-In . SVG Version: 6.00 Build 0)  -->
<svg version="1.1" id="图层_1" xmlns="http://www.w3.org/2000/svg" xmlns:xlink="http://www.w3.org/1999/xlink" x="0px" y="0px"
	 viewBox="0 0 20 20" style="enable-background:new 0 0 20 20;" xml:space="preserve">
<style type="text/css">
	.st0{fill:#015AA4;}
</style>
<path class="st0" d="M6.6,6.6c0-1.9,1.5-3.4,3.4-3.4s3.4,1.5,3.4,3.4c0,0.4-0.1,0.8-0.2,1.1h2.5V6.6C15.6,3.5,13.1,1,10,1
	C6.9,1,4.4,3.5,4.4,6.6v1.1c0,0,1,0,2.5,0C6.7,7.4,6.6,7,6.6,6.6z M15.6,7.8H4.4c-1.2,0-2.3,1-2.3,2.3v6.8c0,1.2,1,2.3,2.3,2.3h11.3
	c1.2,0,2.3-1,2.3-2.3V10C17.9,8.8,16.9,7.8,15.6,7.8z M11.1,14.2v1.4c0,0.6-0.5,1.1-1.1,1.1s-1.1-0.5-1.1-1.1v-1.4
	c-0.7-0.4-1.1-1.1-1.1-1.9c0-1.2,1-2.3,2.3-2.3s2.3,1,2.3,2.3C12.3,13.1,11.8,13.8,11.1,14.2z"/>
</svg>
