<?xml version="1.0" encoding="utf-8"?>
<!-- Generator: Adobe Illustrator 22.0.0, SVG Export Plug-In . SVG Version: 6.00 Build 0)  -->
<svg version="1.1" id="图层_1" xmlns="http://www.w3.org/2000/svg" xmlns:xlink="http://www.w3.org/1999/xlink" x="0px" y="0px"
	 viewBox="0 0 20 20" style="enable-background:new 0 0 20 20;" xml:space="preserve">
<style type="text/css">
	.st0{fill:#015AA4;}
</style>
<path class="st0" d="M17,3.2c-0.2,0-0.3,0-0.5,0c-4.2,0-6.1-1.8-6.1-1.8L10,1L9.6,1.5c0,0-1.8,1.8-6.1,1.8c-0.2,0-0.3,0-0.5,0
	l-0.6,0v8.1c0,2.1,0.8,5.2,7.4,7.6L10,19l0.2-0.1c6.6-2.4,7.4-5.5,7.4-7.6V3.2L17,3.2 M9.3,13.5l-3.8-3.3l1-0.8l2,1.5
	c0,0,2.8-2.9,5.5-4.2L14.5,7C14.5,7,11.1,9.8,9.3,13.5"/>
</svg>
